<svg xmlns="http://www.w3.org/2000/svg" width="120" height="28" viewBox="0 0 120 28">
    <g fill="#000" fill-rule="nonzero">
        <path d="M9.896 0h-1.69C3.782 0 .016 3.632.016 7.593v12.12c.028 4.476 3.681 8.102 8.207 8.145h1.69c4.522-.041 8.175-3.66 8.21-8.133v-3.059h-5.641v2.88c0 1.584-1.382 3.238-3.055 3.238h-.731c-1.69 0-3.06-1.671-3.06-3.238V8.35c0-2.014 1.382-3.277 3.06-3.277h.727c1.69 0 3.054 1.254 3.054 3.277v2.842h5.646V7.593C18.123 3.632 14.337 0 9.896 0zM31.487 0h-1.69c-4.428 0-8.21 3.632-8.21 7.593v12.12c.028 4.484 3.694 8.113 8.227 8.145h1.69c4.522-.041 8.176-3.66 8.21-8.133V7.606C39.714 3.632 35.932 0 31.487 0zm2.586 19.546c0 1.584-1.381 3.238-3.055 3.238h-.73c-1.69 0-3.06-1.671-3.06-3.238V8.35c0-2.014 1.382-3.277 3.06-3.277h.726c1.69 0 3.055 1.254 3.055 3.277l.004 11.196zM53.573 12.274L48.258.43h-4.986v27.002h5.425V12.78l4.513 9.971h.363l4.623-9.971v14.652h5.459V.43h-4.656zM76.838 19.654L72.469.43h-5.713l6.55 27.002h6.625L86.844.43H81.13zM89.97.43h5.569v26.997H89.97zM115.517 25.915l.984 1.508h3.27l-9.409-14.376h-3.27l4.225 6.47a.954.954 0 0 1 .152.513c.002.04.002.081 0 .122-.166 1.54-1.476 2.71-3.042 2.716h-.892c-1.713-.005-3.1-1.377-3.105-3.072V8.061c.002-1.701 1.385-3.086 3.105-3.109h.892c1.714.023 3.086 1.414 3.067 3.11v4.179l5.438 8.333c0-.218.034-.418.034-.66V7.94c0-4.385-3.594-7.94-8.028-7.94h-1.901a8.044 8.044 0 0 0-5.686 2.317 7.867 7.867 0 0 0-2.343 5.623v11.978c0 4.385 3.595 7.94 8.029 7.94h2.535a8.045 8.045 0 0 0 5.32-2.002.425.425 0 0 1 .63.054l-.005.005z"/>
    </g>
</svg>
